<svg width="25" height="24" viewBox="0 0 25 24" fill="none" xmlns="http://www.w3.org/2000/svg">
<path d="M7.58337 5C7.58337 6.24264 6.57601 7.25 5.33337 7.25C4.09073 7.25 3.08337 6.24264 3.08337 5C3.08337 3.75736 4.09073 2.75 5.33337 2.75C6.57601 2.75 7.58337 3.75736 7.58337 5Z" stroke="#F2F2F2" stroke-width="1.5" stroke-miterlimit="10" stroke-linecap="round" stroke-linejoin="round"/>
<path d="M7.58337 12C7.58337 13.2426 6.57601 14.25 5.33337 14.25C4.09073 14.25 3.08337 13.2426 3.08337 12C3.08337 10.7574 4.09073 9.75 5.33337 9.75C6.57601 9.75 7.58337 10.7574 7.58337 12Z" stroke="#F2F2F2" stroke-width="1.5" stroke-miterlimit="10" stroke-linecap="round" stroke-linejoin="round"/>
<path d="M7.58337 19C7.58337 20.2426 6.57601 21.25 5.33337 21.25C4.09073 21.25 3.08337 20.2426 3.08337 19C3.08337 17.7574 4.09073 16.75 5.33337 16.75C6.57601 16.75 7.58337 17.7574 7.58337 19Z" stroke="#F2F2F2" stroke-width="1.5" stroke-miterlimit="10" stroke-linecap="round" stroke-linejoin="round"/>
<path d="M11.8334 5H21.3334" stroke="#F2F2F2" stroke-width="1.5" stroke-linecap="round"/>
<path d="M11.8334 12H21.3334" stroke="#F2F2F2" stroke-width="1.5" stroke-linecap="round"/>
<path d="M11.8334 19H21.3334" stroke="#F2F2F2" stroke-width="1.5" stroke-linecap="round"/>
</svg>
